<svg xmlns="http://www.w3.org/2000/svg" width="100" height="100" viewBox="0 0 100 100">
  <defs>
    <style>
      .cls-1 {
        fill: #dfdcdc;
        fill-rule: evenodd;
      }
    </style>
  </defs>
  <path id="T" class="cls-1" d="M30.559,26.009L30,37.262h1.336A10.5,10.5,0,0,1,32.88,32.1a6.524,6.524,0,0,1,3.129-2.583,15.883,15.883,0,0,1,4.746-.5h5.73V65.678q0,4.034-.773,5.166-1.266,1.84-4.289,1.84H39.735v1.309H59.95V72.684H58.3A5.258,5.258,0,0,1,54.184,71.2q-0.949-1.1-.949-5.52V29.017H59.95a10.062,10.062,0,0,1,4.764.973,7.088,7.088,0,0,1,2.9,3.026,13.68,13.68,0,0,1,1.055,4.246H70L69.477,26.009H30.559Z"/>
</svg>
